<?xml version="1.0" encoding="UTF-8"?>
<svg version="1.1" xmlns="http://www.w3.org/2000/svg" width="726" height="986">
<path d="M0 0 C61.25729236 -2.17053398 118.88705804 25.51998004 165 64 C165.95261719 64.76570313 166.90523437 65.53140625 167.88671875 66.3203125 C176.52897512 73.37799624 184.41380158 81.1973264 192.3125 89.0625 C192.87212433 89.61694794 193.43174866 90.17139587 194.0083313 90.74264526 C200.42030602 97.10786613 206.45942419 103.55499868 212.09399414 110.6262207 C214.46118881 113.57437413 216.96969423 116.31135495 219.5625 119.0625 C223.50170244 123.297996 227.22366348 127.64033334 230.7890625 132.1953125 C232.49227778 134.35592835 234.21459016 136.49182219 235.9609375 138.6171875 C242.00535691 145.97684047 247.87901948 153.42121263 253.55200195 161.07104492 C256.92309667 165.60328834 260.38929954 170.04277456 263.9375 174.4375 C268.72609919 180.37033305 273.38817971 186.38849778 278.00585938 192.45507812 C283.69371987 199.9241903 289.46150994 207.33001289 295.23388672 214.73388672 C298.15887587 218.48696238 301.07918521 222.24367544 304 226 C305.16274919 227.4948004 306.32550962 228.98959205 307.48828125 230.484375 C309.86162523 233.53572258 312.23390119 236.58789658 314.60546875 239.640625 C321.27023809 248.2180193 327.95376787 256.77992451 334.67333984 265.31445312 C336.95086206 268.20808827 339.22524007 271.10419323 341.5 274 C342.4166523 275.16667796 343.33331895 276.33334464 344.25 277.5 C349.75 284.5 349.75 284.5 351.12451172 286.24951172 C352.04263354 287.41794152 352.96092826 288.58623548 353.87939453 289.75439453 C356.15022369 292.64300506 358.41814946 295.53379548 360.6796875 298.4296875 C365.5773341 304.69387091 370.5325802 310.90387942 375.5625 317.0625 C379.4667889 321.84392621 383.31875117 326.65423148 387.0625 331.5625 C391.12342779 336.88507526 395.27635829 342.12475401 399.46899414 347.34399414 C402.83942385 351.54207853 406.18093915 355.76120661 409.5 360 C413.80415501 365.4951444 418.15368894 370.95227168 422.52172852 376.39672852 C425.85477056 380.55563805 429.15497078 384.73865269 432.4375 388.9375 C436.35487028 393.94774443 440.34668658 398.89113974 444.375 403.8125 C448.84166747 409.2729349 453.18068056 414.81214025 457.4375 420.4375 C462.43529277 427.03815846 467.61457422 433.45995264 472.90332031 439.82910156 C478.39867805 446.45360036 483.71315932 453.20878968 489 460 C494.7646762 467.39055623 500.57558956 474.73658214 506.5 482 C512.88133442 489.82361366 519.12198695 497.75071535 525.33398438 505.70898438 C530.67691211 512.54949185 536.07175878 519.33983087 541.5625 526.0625 C546.28835664 531.84867154 550.87667911 537.71486481 555.40625 543.65625 C558.3621134 547.49887241 561.43117322 551.24743114 564.5 555 C569.28645886 560.85537437 573.95467089 566.78148318 578.54296875 572.79296875 C581.1440258 576.19854123 583.78691993 579.57039565 586.4375 582.9375 C586.89527832 583.51902832 587.35305664 584.10055664 587.82470703 584.69970703 C588.75259621 585.8779014 589.68065654 587.05596099 590.60888672 588.23388672 C592.90874237 591.15371048 595.20415945 594.07701893 597.5 597 C598.4166451 598.16668361 599.33331177 599.33335027 600.25 600.5 C605.75 607.5 611.25 614.5 616.75 621.5 C617.2035083 622.07717773 617.6570166 622.65435547 618.12426758 623.24902344 C619.04343313 624.41890016 619.96254095 625.58882223 620.8815918 626.75878906 C623.13456094 629.62671157 625.38843723 632.4939099 627.64453125 635.359375 C634.53067748 644.10859298 641.37098909 652.89297272 648.20166016 661.68554688 C651.13299363 665.45815634 654.06659198 669.22900355 657 673 C658.16667794 674.49999123 659.3333446 675.99999124 660.5 677.5 C661.0775 678.2425 661.655 678.985 662.25 679.75 C673.33333333 694 684.41666667 708.25 695.5 722.5 C696.07830566 723.24330566 696.65661133 723.98661133 697.25244141 724.75244141 C698.4118729 726.24360183 699.57041075 727.73545754 700.72802734 729.22802734 C703.74820826 733.11962704 706.78575534 736.99577383 709.8515625 740.8515625 C710.48320313 741.65078125 711.11484375 742.45 711.765625 743.2734375 C712.96558689 744.79103637 714.17094159 746.30439398 715.3828125 747.8125 C722.74894466 757.15914882 725.15989214 764.87872457 725.12698364 776.72949219 C725.12854363 777.59609844 725.13010362 778.4627047 725.13171089 779.35557175 C725.13569213 782.25269025 725.13254238 785.14975613 725.12939453 788.046875 C725.13074985 790.12666861 725.13253051 792.20646197 725.13470459 794.28625488 C725.13926341 799.93075652 725.13749572 805.57523987 725.1343255 811.21974182 C725.13179392 817.12663828 725.13414168 823.03353317 725.13571167 828.94042969 C725.13753102 838.8600289 725.13513318 848.77962067 725.13037109 858.69921875 C725.12492893 870.16790234 725.12669175 881.63656815 725.1321975 893.10525131 C725.13673528 902.95167061 725.13737591 912.79808455 725.13475883 922.64450455 C725.13319973 928.52549786 725.13299228 934.40648281 725.13629532 940.28747559 C725.13918366 945.81632825 725.13718055 951.34515799 725.13140106 956.87400818 C725.13007865 958.90331484 725.1304588 960.93262343 725.13266373 962.96192932 C725.13539555 965.73148155 725.13196915 968.50096027 725.12698364 971.27050781 C725.12921436 972.07381908 725.13144509 972.87713036 725.13374341 973.70478439 C725.11904245 977.91438984 724.83145917 981.852692 724 986 C659.18524665 988.20959386 597.43318562 956.27449171 550 914 C548.15700737 912.22975708 546.36161622 910.43092761 544.58984375 908.58984375 C542.88744947 906.88744947 541.09409008 905.35975466 539.25 903.8125 C535.17496856 900.3071817 531.59868291 896.39668698 528.00585938 892.41235352 C525.48574972 889.61765032 522.93800877 886.88364455 520.25 884.25 C516.62237963 880.67359309 513.31146406 876.86859129 510 873 C509.09260636 871.94517618 508.18504092 870.89050014 507.27734375 869.8359375 C504.69152021 866.82876136 502.11307973 863.81535196 499.53759766 860.79931641 C498.54620614 859.6391774 497.55377096 858.47992905 496.56005859 857.32177734 C490.99332979 850.83344349 485.57889548 844.25843507 480.33349609 837.50732422 C476.66639283 832.80316467 472.87742053 828.20967053 469.0625 823.625 C463.96567094 817.48535388 459.08324975 811.22620438 454.33276367 804.81567383 C451.0795669 800.42681959 447.76279189 796.0982896 444.375 791.8125 C439.60979673 785.78337116 434.90891658 779.70812243 430.23388672 773.60888672 C428.15907423 770.90350201 426.07933006 768.2019131 424 765.5 C421.50930999 762.26355953 419.01956707 759.02642051 416.53515625 755.78515625 C411.33112262 748.99983763 406.0794122 742.25422723 400.78515625 735.5390625 C398.93045076 733.18608762 397.08464134 730.82655717 395.24609375 728.4609375 C389.85261452 721.53289985 384.31802843 714.75914119 378.6171875 708.08203125 C375.45257893 704.37072441 372.38204989 700.58451329 369.3046875 696.80078125 C367.23333467 694.28356095 365.13281817 691.79648173 363.01635742 689.31738281 C358.31858208 683.814251 353.77312643 678.2218464 349.33422852 672.50805664 C345.66665145 667.80383624 341.87769258 663.20989246 338.0625 658.625 C332.98541351 652.51040692 328.13028647 646.27387525 323.40307617 639.88598633 C319.50866812 634.63570408 315.46438959 629.52324288 311.36108398 624.43530273 C307.74612512 619.94844162 304.21000873 615.40847762 300.70947266 610.83203125 C297.75214788 606.96882749 294.76107613 603.13393628 291.75 599.3125 C287.47892311 593.89125307 283.23366772 588.45050966 279 583 C273.46560019 575.87662651 267.90691785 568.77303237 262.32666016 561.68554688 C260.04913794 558.79191173 257.77475993 555.89580677 255.5 553 C254.5833477 551.83332204 253.66668105 550.66665536 252.75 549.5 C159.25 430.5 159.25 430.5 157.87524414 428.75024414 C156.95784991 427.5826959 156.04036933 426.41521551 155.12280273 425.24780273 C152.84155755 422.3451721 150.56178786 419.44140726 148.28515625 416.53515625 C144.08999658 411.18304902 139.8817142 405.84357675 135.61914062 400.54492188 C130.84763534 394.61328589 126.16461867 388.62663868 121.5625 382.5625 C116.7206864 376.18436262 111.74228069 369.93776579 106.66870117 363.74291992 C102.49581456 358.63864755 98.45686201 353.44752035 94.45703125 348.20703125 C91.8559742 344.80145877 89.21308007 341.42960435 86.5625 338.0625 C86.10472168 337.48097168 85.64694336 336.89944336 85.17529297 336.30029297 C84.24740379 335.1220986 83.31934346 333.94403901 82.39111328 332.76611328 C80.09125763 329.84628952 77.79584055 326.92298107 75.5 324 C74.5833549 322.83331639 73.66668823 321.66664973 72.75 320.5 C59.91666667 304.16666667 47.08333333 287.83333333 34.25 271.5 C33.79641113 270.9227417 33.34282227 270.3454834 32.87548828 269.75073242 C31.95705029 268.58173725 31.03875646 267.4126288 30.12060547 266.2434082 C27.85719671 263.3614306 25.59147818 260.48133851 23.3203125 257.60546875 C21.03877378 254.71587843 18.77078329 251.81592257 16.50488281 248.9140625 C14.85688888 246.81797677 13.18987606 244.73769498 11.5234375 242.65625 C10.34844312 241.16707304 9.17395592 239.67749574 8 238.1875 C7.44779785 237.50647217 6.8955957 236.82544434 6.32666016 236.1237793 C5.8063623 235.45773682 5.28606445 234.79169434 4.75 234.10546875 C4.29109375 233.52949951 3.8321875 232.95353027 3.359375 232.36010742 C-0.35451934 225.91215186 -1.44343614 219.40541403 -1.36749268 212.06401062 C-1.37076152 211.21132514 -1.37403036 210.35863967 -1.37739825 209.48011523 C-1.38463061 206.64760898 -1.37056829 203.81562829 -1.35644531 200.9831543 C-1.35723689 198.94220899 -1.35933631 196.90126383 -1.36264038 194.86032104 C-1.36776169 189.33329266 -1.3542626 183.8064514 -1.33711338 178.27945304 C-1.32203588 172.48349206 -1.32325035 166.68753309 -1.32244873 160.89155579 C-1.31875933 151.15626856 -1.30381121 141.42105196 -1.28125 131.68579102 C-1.25240427 119.21382348 -1.24202775 106.74191286 -1.2375679 94.26991558 C-1.23357735 83.52160014 -1.22107582 72.77329693 -1.20722103 62.02499032 C-1.20313566 58.5832009 -1.20020307 55.1414119 -1.19742584 51.6996212 C-1.19250471 46.27658175 -1.18225444 40.85357609 -1.16798782 35.43055344 C-1.16349433 33.44730625 -1.16063321 31.46405454 -1.15958023 29.48080254 C-1.153166 19.60770011 -1.09769134 9.82703365 0 0 Z " fill="#00AEEE" transform="translate(1,0)"/>
<path d="M0 0 C0 247.83 0 495.66 0 751 C-2.76220272 748.23779728 -4.51421931 746.47514702 -6.453125 743.33203125 C-6.89873779 742.61732666 -7.34435059 741.90262207 -7.8034668 741.16625977 C-8.28082275 740.38951904 -8.75817871 739.61277832 -9.25 738.8125 C-10.32323407 737.08792849 -11.39750574 735.36400239 -12.47265625 733.640625 C-13.04387207 732.72345703 -13.61508789 731.80628906 -14.20361328 730.86132812 C-16.66731855 726.93707891 -19.18169045 723.04634648 -21.69433594 719.15332031 C-29.97834719 706.30721762 -37.94916465 693.29252712 -45.84651184 680.20765686 C-49.52717936 674.11553761 -53.26187861 668.05700039 -57 662 C-69.52504197 641.67893118 -81.88337333 621.26588507 -94.04516602 600.72558594 C-98.91322506 592.50487103 -103.81687637 584.30690906 -108.75 576.125 C-114.38290177 566.77088268 -119.87088394 557.34001026 -125.30566406 547.86962891 C-129.80480555 540.0399997 -134.38230607 532.2602291 -139 524.5 C-144.20855108 515.74359529 -149.35924537 506.95762462 -154.4375 498.125 C-159.81711515 488.76970586 -165.23065262 479.43539971 -170.6875 470.125 C-171.04897125 469.50823395 -171.4104425 468.8914679 -171.78286743 468.25601196 C-176.18591825 460.74790524 -180.62731869 453.26439771 -185.125 445.8125 C-205.40238327 412.15379938 -205.40238327 412.15379938 -213.10839844 395.86865234 C-214.05382124 393.88719941 -215.02916616 391.922269 -216.0078125 389.95703125 C-235.826261 349.70345569 -244.21516769 303.83689267 -244.25 259.25 C-244.25100708 258.34947906 -244.25201416 257.44895813 -244.25305176 256.52114868 C-244.24173638 241.49216634 -243.47841873 226.85199699 -241 212 C-240.85546387 211.12230957 -240.71092773 210.24461914 -240.56201172 209.34033203 C-232.18849295 160.22125236 -210.79442511 116.33946891 -178 79 C-177.13246094 78.00871094 -176.26492188 77.01742187 -175.37109375 75.99609375 C-171.14939541 71.25876813 -166.88374941 66.79234418 -162.01953125 62.71484375 C-160.63064929 61.53550297 -159.27491735 60.31635065 -157.94921875 59.06640625 C-115.37038787 18.98788668 -57.56022131 0 0 0 Z " fill="#00ADED" transform="translate(726,0)"/>
<path d="M0 0 C4.57306796 3.81088997 6.91918654 5.87949463 9.99609375 10.55078125 C10.711604 11.62900146 11.42711426 12.70722168 12.16430664 13.81811523 C12.92251674 14.98259843 13.68023534 16.14740177 14.4375 17.3125 C15.23710413 18.52901962 16.03716005 19.7452424 16.83764648 20.96118164 C29.27381789 39.91000058 41.04353435 59.27316265 52.7702179 78.66548157 C55.23492264 82.74005061 57.70858388 86.80906367 60.1875 90.875 C68.11145718 103.87793011 75.9464688 116.92959441 83.70343018 130.03286743 C90.02150357 140.7031025 96.41717344 151.32315135 102.8671875 161.9140625 C107.4410531 169.42516659 111.98327963 176.95439194 116.5 184.5 C121.86301392 193.4576711 127.26371495 202.39156721 132.6875 211.3125 C140.97981392 224.9552135 149.2251787 238.62402739 157.36328125 252.359375 C158.56148822 254.38117751 159.75969988 256.40297724 160.95791626 258.42477417 C161.77846488 259.80965235 162.59875655 261.19468282 163.41879272 262.5798645 C167.71446364 269.83433874 172.02540781 277.07730651 176.4375 284.26171875 C214.06567172 345.54017474 240.57545638 407.37849862 240.3125 480.5625 C240.31067719 481.61759766 240.30885437 482.67269531 240.30697632 483.75976562 C240.2606995 499.68743153 239.80011196 515.28112761 237 531 C236.74259033 532.47968262 236.74259033 532.47968262 236.47998047 533.98925781 C232.73960233 554.86718617 227.03730046 575.3751852 218.85302734 594.95458984 C218.02580399 596.93812654 217.22488123 598.93078338 216.42578125 600.92578125 C205.15027261 628.46237937 187.33430623 652.51187324 167 674 C165.68708984 675.39412109 165.68708984 675.39412109 164.34765625 676.81640625 C157.42334741 683.96440789 149.96333283 690.05799454 142 696 C141.43410156 696.42667969 140.86820313 696.85335937 140.28515625 697.29296875 C118.63412947 713.54373942 94.45375961 725.00670164 69 734 C68.2251123 734.27827637 67.45022461 734.55655273 66.65185547 734.84326172 C46.20008493 742.09836422 23.80612262 747.29324239 2 745 C1.34 744.67 0.68 744.34 0 744 C0 498.48 0 252.96 0 0 Z " fill="#00AEEE" transform="translate(1,241)"/>
</svg>
